<svg width="24" height="24" viewBox="0 0 24 24" xmlns="http://www.w3.org/2000/svg">
<path fill-rule="evenodd" clip-rule="evenodd" d="M19.0002 4.19995H5.0002C4.00608 4.19995 3.2002 5.00584 3.2002 5.99995V18C3.2002 18.9941 4.00608 19.8 5.0002 19.8H9.76336C9.63643 19.5413 9.52396 19.2743 9.42699 19H5.0002C4.44791 19 4.0002 18.5522 4.0002 18V5.99995C4.0002 5.44767 4.44791 4.99995 5.0002 4.99995H19.0002C19.5525 4.99995 20.0002 5.44767 20.0002 5.99995V9.19995H18.2279C19.1655 9.42101 20.0352 9.81804 20.8002 10.3543V5.99995C20.8002 5.00584 19.9943 4.19995 19.0002 4.19995ZM14.7726 9.19995H4.00024V9.99995H12.7562C13.3776 9.64125 14.0552 9.36909 14.7726 9.19995ZM9.35951 14.2H4.00024V15H9.15028C9.20556 14.7276 9.27559 14.4607 9.35951 14.2Z"/>
<path d="M19.4131 18.119L18.7658 17.4707L19.4131 16.8232C19.6272 16.611 19.7973 16.3586 19.9135 16.0804C20.0298 15.8023 20.09 15.5039 20.0907 15.2024C20.0913 14.9009 20.0324 14.6023 19.9174 14.3236C19.8023 14.045 19.6334 13.7918 19.4202 13.5786C19.2071 13.3654 18.954 13.1965 18.6753 13.0814C18.3967 12.9663 18.0981 12.9075 17.7967 12.9081C17.4953 12.9088 17.1969 12.969 16.9188 13.0853C16.6407 13.2015 16.3883 13.3716 16.1761 13.5857L15.5288 14.2336L14.881 13.5862L15.5293 12.9388C16.1303 12.3377 16.9454 12 17.7953 12C18.6452 12 19.4604 12.3377 20.0614 12.9388C20.6624 13.5399 21 14.3551 21 15.2052C21 16.0552 20.6624 16.8705 20.0614 17.4716L19.4136 18.119H19.4131ZM18.1185 19.4138L17.4707 20.0612C16.8697 20.6623 16.0546 21 15.2047 21C14.3548 21 13.5396 20.6623 12.9386 20.0612C12.3376 19.4601 12 18.6449 12 17.7948C12 16.9448 12.3376 16.1295 12.9386 15.5284L13.5864 14.881L14.2337 15.5293L13.5864 16.1768C13.3723 16.389 13.2023 16.6414 13.086 16.9196C12.9697 17.1977 12.9095 17.4961 12.9089 17.7976C12.9082 18.0991 12.9671 18.3977 13.0822 18.6764C13.1972 18.955 13.3662 19.2082 13.5793 19.4214C13.7924 19.6346 14.0456 19.8035 14.3242 19.9186C14.6028 20.0337 14.9014 20.0926 15.2028 20.0919C15.5043 20.0912 15.8026 20.031 16.0807 19.9147C16.3588 19.7985 16.6112 19.6284 16.8234 19.4143L17.4707 18.7669L18.1185 19.4143V19.4138ZM17.7944 14.5573L18.4422 15.2052L15.2051 18.4422L14.5574 17.7948L17.7944 14.5578V14.5573Z"/>
</svg>
