<svg width="24" height="24" viewBox="0 0 24 24" xmlns="http://www.w3.org/2000/svg">
<path d="M2.99988 5H3.99988V4H4.99988V3H3.99988C2.89988 3 2.99988 3.9 2.99988 5ZM2.99988 13H3.99988V11H2.99988V13ZM6.99988 21H8.99988V20H6.99988V21ZM2.99988 9H3.99988V7H2.99988V9ZM12.9999 3H10.9999V4H12.9999V3ZM19.9999 3H18.9998V4H19.9998L19.9999 5H20.9999C20.9999 3.9 21.0999 3 19.9999 3ZM3.99988 21H4.99983V20H3.99983L3.99988 19H2.99988C2.99988 20.1 2.89988 21 3.99988 21ZM2.99988 17H3.99988V15H2.99988V17ZM8.99988 3H6.99988V4H8.99988V3ZM10.9999 21H12.9999V20H10.9999V21ZM19.9999 13H20.9999V11H19.9999V13ZM19.9999 21C21.0999 21 20.9999 20.1 20.9999 19H19.9999L19.9998 20H18.9998V21H19.9999ZM19.9999 9H20.9999V7H19.9999V9ZM19.9999 17H20.9999V15H19.9999V17ZM14.9999 21H16.9999V20H14.9999V21ZM14.9999 4H16.9999V3H14.9999V4Z"/>
</svg>
